<?xml version="1.0" encoding="utf-8"?>
<!-- Generator: Adobe Illustrator 27.3.1, SVG Export Plug-In . SVG Version: 6.00 Build 0)  -->
<svg version="1.1" id="Ebene_1" xmlns="http://www.w3.org/2000/svg" xmlns:xlink="http://www.w3.org/1999/xlink" x="0px" y="0px"
	 viewBox="0 0 742.28 320.23" style="enable-background:new 0 0 742.28 320.23;" xml:space="preserve">
<path style="fill:#999999;stroke:#000000;stroke-width:5;stroke-miterlimit:10;" d="M703.28,317.73H360.09
	c-18.73,0-33.91-15.18-33.91-33.91v0c0-18.41,14.68-33.45,33.08-33.9l343.19-8.35c19.04-0.46,34.73,14.85,34.73,33.9v8.35
	C737.18,302.55,722,317.73,703.28,317.73z"/>
<polygon style="fill:#FBB03B;stroke:#000000;stroke-width:3;stroke-miterlimit:10;" points="67.18,211.73 133.18,72.73 
	173.18,60.73 173.18,86.56 82.18,220.73 "/>
<polygon style="fill:#FBB03B;stroke:#000000;stroke-width:3;stroke-miterlimit:10;" points="184.18,64.73 184.18,80.56 
	368.18,114.73 374.18,68.73 "/>
<path style="fill:#808080;stroke:#000000;stroke-width:3;stroke-miterlimit:10;" d="M53.16,248.32l-2.76,7.21
	c-0.79,2.05-0.78,4.33,0.02,6.38l10.06,25.92c1.07,2.75,3.42,4.78,6.3,5.44l37.77,8.62c2.33,0.53,4.77,0.1,6.78-1.19l35.65-22.98
	c3.6-2.32,5.03-6.88,3.4-10.83l-0.55-1.35c-1.96-4.77-7.56-6.86-12.17-4.56l-29.6,14.8c-2.44,1.22-5.31,1.25-7.77,0.08l-11.42-5.42
	c-9.05-4.29-15.91-12.14-18.97-21.67l0,0C67.34,240.8,56.16,240.49,53.16,248.32z"/>
<path style="fill:#FBB03B;stroke:#000000;stroke-width:3;stroke-miterlimit:10;" d="M418.91,35.54l-41.81,85.72
	c-1.89,3.87-2.42,8.26-1.52,12.47l12.35,57.78c1.9,8.88,9.75,15.23,18.83,15.23h91.92c9.43,0,17.46-6.82,19-16.12l10.86-65.93
	c0.43-2.6,0.32-5.27-0.33-7.83l-19.53-77.57c-2.15-8.56-9.85-14.55-18.67-14.55h-53.8C428.85,24.73,422.14,28.92,418.91,35.54z"/>
<path style="fill:#FBB03B;stroke:#000000;stroke-width:3;stroke-miterlimit:10;" d="M538.15,149.67l-6.19,39.37
	c-1.46,9.29,5.72,17.69,15.13,17.69h173.57c9.99,0,17.3-9.4,14.85-19.08l-6.62-26.1c-0.47-1.86-1.29-3.62-2.42-5.18l-9.55-13.27
	c-2.88-4-7.5-6.37-12.43-6.37H553.28C545.74,136.73,539.32,142.22,538.15,149.67z"/>
<path style="fill:#FBB03B;stroke:#000000;stroke-width:3;stroke-miterlimit:10;" d="M453.14,219.43l-1.24,4.09
	c-1.85,6.07,2.7,12.21,9.05,12.21h115.36c6.71,0,11.29-6.79,8.76-13.01l-1.66-4.09c-1.45-3.57-4.91-5.9-8.76-5.9H462.19
	C458.03,212.73,454.36,215.45,453.14,219.43z"/>
<circle style="fill:#4D4D4D;stroke:#000000;stroke-width:3;stroke-miterlimit:10;" cx="694.18" cy="280.73" r="30"/>
<circle style="fill:#4D4D4D;stroke:#000000;stroke-width:3;stroke-miterlimit:10;" cx="362.18" cy="283.73" r="26"/>
<polygon  style="fill:#FBB03B;stroke:#000000;stroke-width:3;stroke-miterlimit:10;" points="534.21,174.73 529.18,206.73
	740.35,206.73 732.24,174.73 "/>
<path style="fill:#4D4D4D;stroke:#000000;stroke-width:3;stroke-miterlimit:10;" d="M423.15,57.98l-21.85,44.27
	c-4.2,8.51,1.99,18.47,11.48,18.47h86.19c7.88,0,13.71-7.32,11.96-15l-10.86-47.59c-2.79-12.21-14.27-20.4-26.73-19.06l-27.36,2.95
	C436.15,43.08,427.53,49.1,423.15,57.98z"/>
<ellipse style="fill:#4D4D4D;stroke:#000000;stroke-width:2;stroke-miterlimit:10;" cx="170.18" cy="74.23" rx="22" ry="22.5"/>
<ellipse style="fill:#4D4D4D;stroke:#000000;stroke-width:2;stroke-miterlimit:10;" cx="67.58" cy="229.73" rx="17.6" ry="18"/>
<path style="fill:#1A1A1A;stroke:#F2F2F2;stroke-width:4;stroke-miterlimit:10;" d="M183.81,122.55
	c-19.24,10.01-42.7,6.32-55.76-8.77c-4.29-4.95-7.17-10.81-8.61-17.48l9.82,4.6c-6.18-8.55-11.54-21.92-14.42-32.56
	c-4.76,9.95-12.44,22.13-20.07,29.42l12.06-3.16c1.44,10.43,5.47,19.54,12.05,27.13c10.48,12.11,26.07,18.54,42.21,18.54
	c9.57,0,19.33-2.26,28.33-6.94L183.81,122.55z"/>
<path style="fill:#1A1A1A;stroke:#F2F2F2;stroke-width:4;stroke-miterlimit:10;" d="M210.99,30.14
	c-12.62-9.83-29.58-13.39-46.02-9.83L163.59,7.9c-4.07,9.74-12.68,21.28-20.26,29.29c10.97-1.13,25.37-0.94,35.57,1.77l-7.72-7.42
	c11.76-1.61,23.48,1.27,32.35,8.18c18.95,14.76,15.79,40.98,15.76,41.24l12.03,1.57C231.5,81.18,235.38,49.15,210.99,30.14z"/>
<path style="fill:#1A1A1A;stroke:#F2F2F2;stroke-width:4;stroke-miterlimit:10;" d="M128.9,259.5c9.05-23.86-0.75-52.28-23.29-67.59
	l-6.82,10.04c17.95,12.18,25.84,34.57,18.76,53.24c-2.32,6.13-6.11,11.44-11.3,15.87l-0.62-10.82c-4.59,9.5-13.81,20.56-21.81,28.15
	c11.02-0.54,25.39,0.44,35.42,3.69l-8.5-9.11C119.24,276.76,125.35,268.88,128.9,259.5z"/>
<path style="fill:#1A1A1A;stroke:#F2F2F2;stroke-width:4;stroke-miterlimit:10;" d="M24.69,256.28c-7-9.59-10.03-21.27-8.16-32.36
	c4-23.68,28.56-33.35,28.81-33.45l-4.33-11.34c-1.28,0.49-31.31,12.28-36.45,42.77c-2.66,15.78,2.26,32.39,13.2,45.17l-10.27,7.11
	c10.5-1.04,24.75,1.06,35.4,3.92c-6.21-9.12-12.87-21.88-15.33-32.14L24.69,256.28z"/>
<ellipse style="fill:#4D4D4D;stroke:#000000;stroke-width:2;stroke-miterlimit:10;" cx="375.18" cy="93.23" rx="22" ry="22.5"/>
<path style="fill:#1A1A1A;stroke:#F2F2F2;stroke-width:4;stroke-miterlimit:10;" d="M412.39,117.8
	c-10.65,18.9-32.31,28.62-51.5,23.12c-6.3-1.81-11.91-5.14-16.76-9.94l10.73-1.51c-9.85-3.78-21.64-12.06-29.87-19.4
	c1.45,10.93,1.67,25.33-0.74,35.61l8.37-9.23c6.9,7.95,15.26,13.38,24.91,16.15c4.68,1.34,9.46,1.99,14.24,1.99
	c20.27,0,40.35-11.6,51.18-30.81L412.39,117.8z"/>
<path style="fill:#1A1A1A;stroke:#F2F2F2;stroke-width:4;stroke-miterlimit:10;" d="M384.68,25.55
	c-15.95-1.35-32.09,4.94-43.92,16.9l-7.94-9.64c1.91,10.38,1,24.75-0.97,35.6c8.57-6.94,20.74-14.64,30.76-17.95l-10.52-2
	c8.97-7.77,20.36-11.76,31.57-10.82c23.93,2.02,35.61,25.7,35.72,25.94l10.94-5.26C429.73,57.09,415.48,28.14,384.68,25.55z"/>
<path style="fill:#1A1A1A;stroke:#F2F2F2;stroke-width:4;stroke-miterlimit:10;" d="M622.97,242.99
	c-3.12-8.67-4.37-21.18-4.22-30.81c-6.4,7.2-15.79,15.56-23.95,19.83l9.73,0.24c-0.94,1.39-1.94,2.73-2.99,4.02
	c-16.87,20.67-42.67,22.73-50.17,22.87l0.2,10.6c8.66-0.16,38.43-2.58,58.18-26.77c1.83-2.25,3.52-4.63,5.07-7.11L622.97,242.99z"/>
<path style="fill:#1A1A1A;stroke:#F2F2F2;stroke-width:4;stroke-miterlimit:10;" d="M481.66,259.7c-9.56,0.47-18.63-1.16-26.97-4.86
	c-9.93-4.4-18.26-11.5-24.84-21.12l9.7-0.74c-8.21-3.77-17.83-11.48-24.45-18.2c0.64,9.42,0.05,21.73-2.57,30.37l7.57-7.35
	c7.78,12,18.21,21.14,30.37,26.53c8.73,3.87,18.12,5.83,27.95,5.83c1.24,0,2.49-0.03,3.75-0.09L481.66,259.7z"/>
<g>
	<path style="stroke:#FBB03B;stroke-width:2.8;stroke-miterlimit:10;" d="M483.42,295.73h-17.23c-5.78,0-10.51-4.73-10.51-10.51
		v-24.48c0-5.78,4.73-10.51,10.51-10.51h17.23c5.78,0,10.51,4.73,10.51,10.51v24.48C493.93,291,489.2,295.73,483.42,295.73z"/>
	<g>
		<path style="fill:#E6E6E6;" d="M483.83,287.67c-3.3-0.83-6.52-1.77-9.35-2.71c-0.51-0.17-1.01-0.35-1.49-0.35
			c-5.8-0.21-10.76-4.31-10.76-11.86c0-7.51,4.78-12.34,11.38-12.34c6.63,0,10.94,4.94,10.94,11.86c0,6.02-2.9,9.88-6.96,11.23v0.14
			c2.43,0.59,5.07,1.15,7.14,1.5L483.83,287.67z M481.22,272.41c0-4.69-2.54-9.53-7.72-9.53c-5.33,0-7.94,4.73-7.9,9.81
			c-0.04,4.97,2.83,9.46,7.76,9.46C478.39,282.15,481.22,277.76,481.22,272.41z"/>
	</g>
</g>
<g>
	<path style="stroke:#FBB03B;stroke-width:2.8;stroke-miterlimit:10;" d="M565.62,295.23h-17.23c-5.78,0-10.51-4.73-10.51-10.51
		v-24.48c0-5.78,4.73-10.51,10.51-10.51h17.23c5.78,0,10.51,4.73,10.51,10.51v24.48C576.13,290.5,571.4,295.23,565.62,295.23z"/>
	<g>
		<path style="fill:#E6E6E6;" d="M562.1,272.74h-9.49v8.45h10.58v2.54h-13.73v-23.44h13.19v2.54h-10.04v7.41h9.49V272.74z"/>
	</g>
</g>
<g>
	<path style="stroke:#FBB03B;stroke-width:2.8;stroke-miterlimit:10;" d="M41.02,214.23H23.79c-5.78,0-10.51-4.73-10.51-10.51
		v-24.48c0-5.78,4.73-10.51,10.51-10.51h17.23c5.78,0,10.51,4.73,10.51,10.51v24.48C51.53,209.5,46.8,214.23,41.02,214.23z"/>
	<g>
		<path style="fill:#E6E6E6;" d="M25.2,179.29v13.88c0,5.25,2.43,7.48,5.69,7.48c3.62,0,5.94-2.29,5.94-7.48v-13.88h3.19v13.67
			c0,7.2-3.95,10.15-9.24,10.15c-5,0-8.77-2.75-8.77-10.02v-13.81H25.2z"/>
	</g>
</g>
<g>
	<path style="stroke:#FBB03B;stroke-width:2.8;stroke-miterlimit:10;" d="M128.62,234.23h-17.23c-5.78,0-10.51-4.73-10.51-10.51
		v-24.48c0-5.78,4.73-10.51,10.51-10.51h17.23c5.78,0,10.51,4.73,10.51,10.51v24.48C139.13,229.5,134.4,234.23,128.62,234.23z"/>
	<g>
		<path style="fill:#E6E6E6;" d="M119.66,199.29h3.15v15.68c0,6.22-3.19,8.14-7.39,8.14c-1.16,0-2.57-0.24-3.37-0.56l0.47-2.47
			c0.65,0.24,1.59,0.45,2.65,0.45c2.83,0,4.49-1.22,4.49-5.81V199.29z"/>
	</g>
</g>
<g>
	<path style="stroke:#FBB03B;stroke-width:2.8;stroke-miterlimit:10;" d="M186.42,163.23h-17.23c-5.78,0-10.51-4.73-10.51-10.51
		v-24.48c0-5.78,4.73-10.51,10.51-10.51h17.23c5.78,0,10.51,4.73,10.51,10.51v24.48C196.93,158.5,192.2,163.23,186.42,163.23z"/>
	<g>
		<path style="fill:#E6E6E6;" d="M177.99,128.29v23.44h-3.15v-23.44H177.99z"/>
	</g>
</g>
<g>
	<path style="stroke:#FBB03B;stroke-width:2.8;stroke-miterlimit:10;" d="M233.92,97.23h-17.23c-5.78,0-10.51-4.73-10.51-10.51
		V62.24c0-5.78,4.73-10.51,10.51-10.51h17.23c5.78,0,10.51,4.73,10.51,10.51v24.48C244.43,92.5,239.7,97.23,233.92,97.23z"/>
	<g>
		<path style="fill:#E6E6E6;" d="M218.25,62.29h3.15v11.3h0.11c0.65-0.9,1.3-1.74,1.92-2.5l7.47-8.8h3.91l-8.84,9.95l9.53,13.49
			h-3.73l-8.04-11.51l-2.32,2.57v8.94h-3.15V62.29z"/>
	</g>
</g>
<g>
	<path style="stroke:#FBB03B;stroke-width:2.8;stroke-miterlimit:10;" d="M427.12,80.23h-17.23c-5.78,0-10.51-4.73-10.51-10.51
		V45.24c0-5.78,4.73-10.51,10.51-10.51h17.23c5.78,0,10.51,4.73,10.51,10.51v24.48C437.63,75.5,432.9,80.23,427.12,80.23z"/>
	<g>
		<path style="fill:#E6E6E6;" d="M429.66,56.77c0,8.07-5.11,12.35-11.34,12.35c-6.45,0-10.98-4.8-10.98-11.89
			c0-7.44,4.82-12.31,11.34-12.31C425.34,44.91,429.66,49.81,429.66,56.77z M410.7,57.15c0,5.01,2.83,9.49,7.79,9.49
			c5,0,7.83-4.42,7.83-9.74c0-4.66-2.54-9.53-7.79-9.53C413.31,47.38,410.7,52.01,410.7,57.15z"/>
	</g>
</g>
<g>
	<path style="stroke:#FBB03B;stroke-width:2.8;stroke-miterlimit:10;" d="M420.92,155.23h-17.23c-5.78,0-10.51-4.73-10.51-10.51
		v-24.48c0-5.78,4.73-10.51,10.51-10.51h17.23c5.78,0,10.51,4.73,10.51,10.51v24.48C431.43,150.5,426.7,155.23,420.92,155.23z"/>
	<g>
		<path style="fill:#E6E6E6;" d="M406.51,120.29h3.15v20.9h10.44v2.54h-13.59V120.29z"/>
	</g>
</g>
<g>
</g>
<g>
</g>
<g>
</g>
<g>
</g>
<g>
</g>
<g>
</g>
<g>
</g>
<g>
</g>
<g>
</g>
<g>
</g>
<g>
</g>
<g>
</g>
<g>
</g>
<g>
</g>
<g>
</g>
</svg>
